<svg width="200" height="200" viewBox="0 0 200 200" fill="none" xmlns="http://www.w3.org/2000/svg">
  <rect width="200" height="200" rx="8" fill="#FFFFFF"/>
  <path d="M130.44 101.29C130.28 85.82 143.13 79.11 143.75 78.73C136.13 67.42 124.35 66.03 120.31 65.89C110.42 64.86 100.8 71.61 95.78 71.61C90.61 71.61 82.84 66.02 74.57 66.22C63.99 66.41 54.11 72.25 48.51 81.53C37.01 100.49 45.6 128.56 56.6 144.07C62.11 151.67 68.6 160.15 77.02 159.84C85.22 159.51 88.19 154.4 98.07 154.4C107.8 154.4 110.59 159.84 119.22 159.67C128.06 159.55 133.71 152.06 139.01 144.37C145.36 135.52 147.91 127.01 148 126.6C147.78 126.52 130.61 119.65 130.44 101.29Z" fill="black"/>
  <path d="M116.25 54.25C120.64 48.86 123.56 41.56 122.7 34C116.32 34.29 108.51 38.35 103.93 43.59C99.84 48.2 96.32 55.74 97.32 63.06C104.45 63.65 111.7 59.53 116.25 54.25Z" fill="black"/>
</svg>